<svg width="32" height="32" viewBox="0 0 32 32" fill="none" xmlns="http://www.w3.org/2000/svg">
<rect width="32" height="32" fill="#0C0C0C"/>
<path d="M26.9042 7.5V11.5071H13.4266C12.5807 11.5071 11.8705 11.58 11.296 11.7257C10.7374 11.8714 10.2905 12.1224 9.95539 12.4786C9.62024 12.8186 9.38085 13.2881 9.23721 13.8871C9.10954 14.4862 9.0457 15.231 9.0457 16.1214V20.4686H22.9304V17.9186H19.8901V14.1057H27V24.5H5V15.9757C5 14.6481 5.18353 13.4581 5.5506 12.4057C5.91766 11.3533 6.4523 10.4629 7.15452 9.73429C7.87269 9.00571 8.75045 8.45524 9.78781 8.08286C10.8252 7.69429 12.0141 7.5 13.3547 7.5H26.9042Z" fill="white"/>
</svg>
