<svg width="2154" height="1202" viewBox="0 0 2154 1202" fill="none" xmlns="http://www.w3.org/2000/svg">
<rect x="243" width="2" height="12" fill="#D9D9D9"/>
<rect x="481" width="2" height="12" fill="#D9D9D9"/>
<rect x="1195" width="2" height="12" fill="#D9D9D9"/>
<rect x="719" width="2" height="12" fill="#D9D9D9"/>
<rect x="1433" width="2" height="12" fill="#D9D9D9"/>
<rect x="1909" width="2" height="12" fill="#D9D9D9"/>
<rect x="957" width="2" height="12" fill="#D9D9D9"/>
<rect x="1671" width="2" height="12" fill="#D9D9D9"/>
<rect x="2147" width="2" height="12" fill="#D9D9D9"/>
<rect x="243" y="238" width="2" height="12" fill="#D9D9D9"/>
<rect x="243" y="714" width="2" height="12" fill="#D9D9D9"/>
<rect x="243" y="1190" width="2" height="12" fill="#D9D9D9"/>
<rect x="243" y="476" width="2" height="12" fill="#D9D9D9"/>
<rect x="243" y="952" width="2" height="12" fill="#D9D9D9"/>
<rect x="481" y="238" width="2" height="12" fill="#D9D9D9"/>
<rect x="481" y="714" width="2" height="12" fill="#D9D9D9"/>
<rect x="481" y="1190" width="2" height="12" fill="#D9D9D9"/>
<rect x="481" y="476" width="2" height="12" fill="#D9D9D9"/>
<rect x="481" y="952" width="2" height="12" fill="#D9D9D9"/>
<rect x="1195" y="238" width="2" height="12" fill="#D9D9D9"/>
<rect x="1195" y="714" width="2" height="12" fill="#D9D9D9"/>
<rect x="1195" y="1190" width="2" height="12" fill="#D9D9D9"/>
<rect x="1195" y="476" width="2" height="12" fill="#D9D9D9"/>
<rect x="1195" y="952" width="2" height="12" fill="#D9D9D9"/>
<rect x="719" y="238" width="2" height="12" fill="#D9D9D9"/>
<rect x="719" y="714" width="2" height="12" fill="#D9D9D9"/>
<rect x="719" y="1190" width="2" height="12" fill="#D9D9D9"/>
<rect x="719" y="476" width="2" height="12" fill="#D9D9D9"/>
<rect x="719" y="952" width="2" height="12" fill="#D9D9D9"/>
<rect x="1433" y="238" width="2" height="12" fill="#D9D9D9"/>
<rect x="1433" y="714" width="2" height="12" fill="#D9D9D9"/>
<rect x="1433" y="1190" width="2" height="12" fill="#D9D9D9"/>
<rect x="1433" y="476" width="2" height="12" fill="#D9D9D9"/>
<rect x="1433" y="952" width="2" height="12" fill="#D9D9D9"/>
<rect x="1909" y="238" width="2" height="12" fill="#D9D9D9"/>
<rect x="1909" y="714" width="2" height="12" fill="#D9D9D9"/>
<rect x="1909" y="1190" width="2" height="12" fill="#D9D9D9"/>
<rect x="1909" y="476" width="2" height="12" fill="#D9D9D9"/>
<rect x="1909" y="952" width="2" height="12" fill="#D9D9D9"/>
<rect x="957" y="238" width="2" height="12" fill="#D9D9D9"/>
<rect x="957" y="714" width="2" height="12" fill="#D9D9D9"/>
<rect x="957" y="1190" width="2" height="12" fill="#D9D9D9"/>
<rect x="957" y="476" width="2" height="12" fill="#D9D9D9"/>
<rect x="957" y="952" width="2" height="12" fill="#D9D9D9"/>
<rect x="1671" y="238" width="2" height="12" fill="#D9D9D9"/>
<rect x="1671" y="714" width="2" height="12" fill="#D9D9D9"/>
<rect x="1671" y="1190" width="2" height="12" fill="#D9D9D9"/>
<rect x="1671" y="476" width="2" height="12" fill="#D9D9D9"/>
<rect x="1671" y="952" width="2" height="12" fill="#D9D9D9"/>
<rect x="2147" y="238" width="2" height="12" fill="#D9D9D9"/>
<rect x="2147" y="714" width="2" height="12" fill="#D9D9D9"/>
<rect x="2147" y="1190" width="2" height="12" fill="#D9D9D9"/>
<rect x="2147" y="476" width="2" height="12" fill="#D9D9D9"/>
<rect x="2147" y="952" width="2" height="12" fill="#D9D9D9"/>
<rect x="5" width="2" height="12" fill="#D9D9D9"/>
<rect x="5" y="238" width="2" height="12" fill="#D9D9D9"/>
<rect x="5" y="714" width="2" height="12" fill="#D9D9D9"/>
<rect x="5" y="1190" width="2" height="12" fill="#D9D9D9"/>
<rect x="5" y="476" width="2" height="12" fill="#D9D9D9"/>
<rect x="5" y="952" width="2" height="12" fill="#D9D9D9"/>
<rect x="250" y="5" width="2" height="12" transform="rotate(90 250 5)" fill="#D9D9D9"/>
<rect x="488" y="5" width="2" height="12" transform="rotate(90 488 5)" fill="#D9D9D9"/>
<rect x="1202" y="5" width="2" height="12" transform="rotate(90 1202 5)" fill="#D9D9D9"/>
<rect x="726" y="5" width="2" height="12" transform="rotate(90 726 5)" fill="#D9D9D9"/>
<rect x="1440" y="5" width="2" height="12" transform="rotate(90 1440 5)" fill="#D9D9D9"/>
<rect x="1916" y="5" width="2" height="12" transform="rotate(90 1916 5)" fill="#D9D9D9"/>
<rect x="964" y="5" width="2" height="12" transform="rotate(90 964 5)" fill="#D9D9D9"/>
<rect x="1678" y="5" width="2" height="12" transform="rotate(90 1678 5)" fill="#D9D9D9"/>
<rect x="2154" y="5" width="2" height="12" transform="rotate(90 2154 5)" fill="#D9D9D9"/>
<rect x="250" y="243" width="2" height="12" transform="rotate(90 250 243)" fill="#D9D9D9"/>
<rect x="250" y="719" width="2" height="12" transform="rotate(90 250 719)" fill="#D9D9D9"/>
<rect x="250" y="1195" width="2" height="12" transform="rotate(90 250 1195)" fill="#D9D9D9"/>
<rect x="250" y="481" width="2" height="12" transform="rotate(90 250 481)" fill="#D9D9D9"/>
<rect x="250" y="957" width="2" height="12" transform="rotate(90 250 957)" fill="#D9D9D9"/>
<rect x="488" y="243" width="2" height="12" transform="rotate(90 488 243)" fill="#D9D9D9"/>
<rect x="488" y="719" width="2" height="12" transform="rotate(90 488 719)" fill="#D9D9D9"/>
<rect x="488" y="1195" width="2" height="12" transform="rotate(90 488 1195)" fill="#D9D9D9"/>
<rect x="488" y="481" width="2" height="12" transform="rotate(90 488 481)" fill="#D9D9D9"/>
<rect x="488" y="957" width="2" height="12" transform="rotate(90 488 957)" fill="#D9D9D9"/>
<rect x="1202" y="243" width="2" height="12" transform="rotate(90 1202 243)" fill="#D9D9D9"/>
<rect x="1202" y="719" width="2" height="12" transform="rotate(90 1202 719)" fill="#D9D9D9"/>
<rect x="1202" y="1195" width="2" height="12" transform="rotate(90 1202 1195)" fill="#D9D9D9"/>
<rect x="1202" y="481" width="2" height="12" transform="rotate(90 1202 481)" fill="#D9D9D9"/>
<rect x="1202" y="957" width="2" height="12" transform="rotate(90 1202 957)" fill="#D9D9D9"/>
<rect x="726" y="243" width="2" height="12" transform="rotate(90 726 243)" fill="#D9D9D9"/>
<rect x="726" y="719" width="2" height="12" transform="rotate(90 726 719)" fill="#D9D9D9"/>
<rect x="726" y="1195" width="2" height="12" transform="rotate(90 726 1195)" fill="#D9D9D9"/>
<rect x="726" y="481" width="2" height="12" transform="rotate(90 726 481)" fill="#D9D9D9"/>
<rect x="726" y="957" width="2" height="12" transform="rotate(90 726 957)" fill="#D9D9D9"/>
<rect x="1440" y="243" width="2" height="12" transform="rotate(90 1440 243)" fill="#D9D9D9"/>
<rect x="1440" y="719" width="2" height="12" transform="rotate(90 1440 719)" fill="#D9D9D9"/>
<rect x="1440" y="1195" width="2" height="12" transform="rotate(90 1440 1195)" fill="#D9D9D9"/>
<rect x="1440" y="481" width="2" height="12" transform="rotate(90 1440 481)" fill="#D9D9D9"/>
<rect x="1440" y="957" width="2" height="12" transform="rotate(90 1440 957)" fill="#D9D9D9"/>
<rect x="1916" y="243" width="2" height="12" transform="rotate(90 1916 243)" fill="#D9D9D9"/>
<rect x="1916" y="719" width="2" height="12" transform="rotate(90 1916 719)" fill="#D9D9D9"/>
<rect x="1916" y="1195" width="2" height="12" transform="rotate(90 1916 1195)" fill="#D9D9D9"/>
<rect x="1916" y="481" width="2" height="12" transform="rotate(90 1916 481)" fill="#D9D9D9"/>
<rect x="1916" y="957" width="2" height="12" transform="rotate(90 1916 957)" fill="#D9D9D9"/>
<rect x="964" y="243" width="2" height="12" transform="rotate(90 964 243)" fill="#D9D9D9"/>
<rect x="964" y="719" width="2" height="12" transform="rotate(90 964 719)" fill="#D9D9D9"/>
<rect x="964" y="1195" width="2" height="12" transform="rotate(90 964 1195)" fill="#D9D9D9"/>
<rect x="964" y="481" width="2" height="12" transform="rotate(90 964 481)" fill="#D9D9D9"/>
<rect x="964" y="957" width="2" height="12" transform="rotate(90 964 957)" fill="#D9D9D9"/>
<rect x="1678" y="243" width="2" height="12" transform="rotate(90 1678 243)" fill="#D9D9D9"/>
<rect x="1678" y="719" width="2" height="12" transform="rotate(90 1678 719)" fill="#D9D9D9"/>
<rect x="1678" y="1195" width="2" height="12" transform="rotate(90 1678 1195)" fill="#D9D9D9"/>
<rect x="1678" y="481" width="2" height="12" transform="rotate(90 1678 481)" fill="#D9D9D9"/>
<rect x="1678" y="957" width="2" height="12" transform="rotate(90 1678 957)" fill="#D9D9D9"/>
<rect x="2154" y="243" width="2" height="12" transform="rotate(90 2154 243)" fill="#D9D9D9"/>
<rect x="2154" y="719" width="2" height="12" transform="rotate(90 2154 719)" fill="#D9D9D9"/>
<rect x="2154" y="1195" width="2" height="12" transform="rotate(90 2154 1195)" fill="#D9D9D9"/>
<rect x="2154" y="481" width="2" height="12" transform="rotate(90 2154 481)" fill="#D9D9D9"/>
<rect x="2154" y="957" width="2" height="12" transform="rotate(90 2154 957)" fill="#D9D9D9"/>
<rect x="12" y="5" width="2" height="12" transform="rotate(90 12 5)" fill="#D9D9D9"/>
<rect x="12" y="243" width="2" height="12" transform="rotate(90 12 243)" fill="#D9D9D9"/>
<rect x="12" y="719" width="2" height="12" transform="rotate(90 12 719)" fill="#D9D9D9"/>
<rect x="12" y="1195" width="2" height="12" transform="rotate(90 12 1195)" fill="#D9D9D9"/>
<rect x="12" y="481" width="2" height="12" transform="rotate(90 12 481)" fill="#D9D9D9"/>
<rect x="12" y="957" width="2" height="12" transform="rotate(90 12 957)" fill="#D9D9D9"/>
<rect opacity="0.1" x="6" y="6" width="238" height="238" stroke="white"/>
<rect opacity="0.1" x="6" y="482" width="238" height="238" stroke="white"/>
<rect opacity="0.1" x="6" y="958" width="238" height="238" stroke="white"/>
<rect opacity="0.1" x="6" y="244" width="238" height="238" stroke="white"/>
<rect opacity="0.1" x="6" y="720" width="238" height="238" stroke="white"/>
<rect opacity="0.1" x="244" y="6" width="238" height="238" stroke="white"/>
<rect opacity="0.1" x="244" y="482" width="238" height="238" stroke="white"/>
<rect opacity="0.1" x="244" y="958" width="238" height="238" stroke="white"/>
<rect opacity="0.1" x="244" y="244" width="238" height="238" stroke="white"/>
<rect opacity="0.1" x="244" y="720" width="238" height="238" stroke="white"/>
<rect opacity="0.1" x="958" y="6" width="238" height="238" stroke="white"/>
<rect opacity="0.1" x="958" y="482" width="238" height="238" stroke="white"/>
<rect opacity="0.1" x="958" y="958" width="238" height="238" stroke="white"/>
<rect opacity="0.1" x="958" y="244" width="238" height="238" stroke="white"/>
<rect opacity="0.1" x="958" y="720" width="238" height="238" stroke="white"/>
<rect opacity="0.1" x="482" y="6" width="238" height="238" stroke="white"/>
<rect opacity="0.1" x="482" y="482" width="238" height="238" stroke="white"/>
<rect opacity="0.1" x="482" y="958" width="238" height="238" stroke="white"/>
<rect opacity="0.1" x="482" y="244" width="238" height="238" stroke="white"/>
<rect opacity="0.1" x="482" y="720" width="238" height="238" stroke="white"/>
<rect opacity="0.1" x="1196" y="6" width="238" height="238" stroke="white"/>
<rect opacity="0.1" x="1196" y="482" width="238" height="238" stroke="white"/>
<rect opacity="0.1" x="1196" y="958" width="238" height="238" stroke="white"/>
<rect opacity="0.1" x="1196" y="244" width="238" height="238" stroke="white"/>
<rect opacity="0.1" x="1196" y="720" width="238" height="238" stroke="white"/>
<rect opacity="0.1" x="1672" y="6" width="238" height="238" stroke="white"/>
<rect opacity="0.1" x="1672" y="482" width="238" height="238" stroke="white"/>
<rect opacity="0.1" x="1672" y="958" width="238" height="238" stroke="white"/>
<rect opacity="0.1" x="1672" y="244" width="238" height="238" stroke="white"/>
<rect opacity="0.1" x="1672" y="720" width="238" height="238" stroke="white"/>
<rect opacity="0.1" x="720" y="6" width="238" height="238" stroke="white"/>
<rect opacity="0.1" x="720" y="482" width="238" height="238" stroke="white"/>
<rect opacity="0.1" x="720" y="958" width="238" height="238" stroke="white"/>
<rect opacity="0.1" x="720" y="244" width="238" height="238" stroke="white"/>
<rect opacity="0.1" x="720" y="720" width="238" height="238" stroke="white"/>
<rect opacity="0.1" x="1434" y="6" width="238" height="238" stroke="white"/>
<rect opacity="0.1" x="1434" y="482" width="238" height="238" stroke="white"/>
<rect opacity="0.1" x="1434" y="958" width="238" height="238" stroke="white"/>
<rect opacity="0.1" x="1434" y="244" width="238" height="238" stroke="white"/>
<rect opacity="0.1" x="1434" y="720" width="238" height="238" stroke="white"/>
<rect opacity="0.1" x="1910" y="6" width="238" height="238" stroke="white"/>
<rect opacity="0.1" x="1910" y="482" width="238" height="238" stroke="white"/>
<rect opacity="0.1" x="1910" y="958" width="238" height="238" stroke="white"/>
<rect opacity="0.1" x="1910" y="244" width="238" height="238" stroke="white"/>
<rect opacity="0.1" x="1910" y="720" width="238" height="238" stroke="white"/>
</svg>
