<svg width="720" height="30" viewBox="0 0 720 30" fill="none" xmlns="http://www.w3.org/2000/svg">
<path fill-rule="evenodd" clip-rule="evenodd" d="M633.373 15.5648L629.964 11.3115H616.899L613.491 15.5648H535.669L526.5 4.66445L517.491 11.3441H498.746L490.225 18.0084H453.87L443.077 11.8839H361.846L356.166 22.9264L347.645 8.2031L344.805 11.8839H269.254L264.71 6.36269H244.828L240.284 11.8839L155.012 11.8839L145 0L127 22.6229L117.988 15.5648L0 15.5648V30H720V15.5648L690.5 15.5648L688.5 12.5333L685 15.5648L682 17.9431L680.5 15.5648H633.373ZM144.984 6.39344C144.44 6.39344 144 6.83382 144 7.37705C144 7.92028 144.44 8.36065 144.984 8.36065H145.016C145.56 8.36065 146 7.92028 146 7.37705C146 6.83382 145.56 6.39344 145.016 6.39344H144.984ZM146 10.3279C146 9.78464 146.44 9.34426 146.984 9.34426H147.016C147.56 9.34426 148 9.78464 148 10.3279C148 10.8711 147.56 11.3115 147.016 11.3115H146.984C146.44 11.3115 146 10.8711 146 10.3279ZM142.984 9.34426C142.44 9.34426 142 9.78464 142 10.3279C142 10.8711 142.44 11.3115 142.984 11.3115H143.016C143.56 11.3115 144 10.8711 144 10.3279C144 9.78464 143.56 9.34426 143.016 9.34426H142.984ZM245 9.34426C245 8.80103 245.44 8.36065 245.984 8.36065H250.016C250.56 8.36065 251 8.80103 251 9.34426C251 9.88749 250.56 10.3279 250.016 10.3279H245.984C245.44 10.3279 245 9.88749 245 9.34426ZM110.984 17.9431C110.44 17.9431 110 18.3835 110 18.9267C110 19.47 110.44 19.9103 110.984 19.9103H115.016C115.56 19.9103 116 19.47 116 18.9267C116 18.3835 115.56 17.9431 115.016 17.9431H110.984ZM4 18.9267C4 18.3835 4.44038 17.9431 4.98361 17.9431H9.01639C9.55962 17.9431 10 18.3835 10 18.9267C10 19.47 9.55962 19.9103 9.01639 19.9103H4.98361C4.44038 19.9103 4 19.47 4 18.9267ZM502 14.0251C502 13.4728 501.552 13.0251 501 13.0251C500.448 13.0251 500 13.4728 500 14.0251V16.9431C500 17.4954 500.448 17.9431 501 17.9431C501.552 17.9431 502 17.4954 502 16.9431V14.0251ZM509 13.0251C509.552 13.0251 510 13.4728 510 14.0251V16.9431C510 17.4954 509.552 17.9431 509 17.9431C508.448 17.9431 508 17.4954 508 16.9431V14.0251C508 13.4728 508.448 13.0251 509 13.0251ZM621.016 15.2459C621.56 15.2459 622 14.8055 622 14.2623C622 13.7191 621.56 13.2787 621.016 13.2787H617.984C617.44 13.2787 617 13.7191 617 14.2623C617 14.8055 617.44 15.2459 617.984 15.2459H621.016ZM629 14.2623C629 14.8055 628.56 15.2459 628.016 15.2459H627.984C627.44 15.2459 627 14.8055 627 14.2623C627 13.7191 627.44 13.2787 627.984 13.2787H628.016C628.56 13.2787 629 13.7191 629 14.2623ZM506 14.0251C506 13.4728 505.552 13.0251 505 13.0251C504.448 13.0251 504 13.4728 504 14.0251V14.9759C504 15.5282 504.448 15.9759 505 15.9759C505.552 15.9759 506 15.5282 506 14.9759V14.0251ZM253 9.34426C253 8.80103 253.44 8.36065 253.984 8.36065H254.016C254.56 8.36065 255 8.80103 255 9.34426C255 9.88749 254.56 10.3279 254.016 10.3279H253.984C253.44 10.3279 253 9.88749 253 9.34426ZM366.984 14.2623C366.44 14.2623 366 14.7027 366 15.2459C366 15.7891 366.44 16.2295 366.984 16.2295H367.016C367.56 16.2295 368 15.7891 368 15.2459C368 14.7027 367.56 14.2623 367.016 14.2623H366.984ZM368 18.1967C368 17.6535 368.44 17.2131 368.984 17.2131H369.016C369.56 17.2131 370 17.6535 370 18.1967C370 18.7399 369.56 19.1803 369.016 19.1803H368.984C368.44 19.1803 368 18.7399 368 18.1967ZM364.984 17.2131C364.44 17.2131 364 17.6535 364 18.1967C364 18.7399 364.44 19.1803 364.984 19.1803H365.016C365.56 19.1803 366 18.7399 366 18.1967C366 17.6535 365.56 17.2131 365.016 17.2131H364.984Z" fill="#0C0C0C"/>
</svg>
