<svg width="149" height="16" viewBox="0 0 149 16" fill="none" xmlns="http://www.w3.org/2000/svg">
<path d="M65 8H127" stroke="#0C0C0C" stroke-width="2"/>
<path d="M136 3L146 13" stroke="#0C0C0C" stroke-width="2"/>
<path d="M146 3L136 13" stroke="#0C0C0C" stroke-width="2"/>
<path d="M52.5925 0H49L55.3339 8.03721L49 16H52.5925L59 8.03721L52.5925 0Z" fill="#0C0C0C"/>
<path d="M24.5925 0H21L27.3339 8.03721L21 16H24.5925L31 8.03721L24.5925 0Z" fill="#0C0C0C"/>
<path d="M38.5925 0H35L41.3339 8.03721L35 16H38.5925L45 8.03721L38.5925 0Z" fill="#0C0C0C"/>
<path d="M10.5925 0H7L13.3339 8.03721L7 16H10.5925L17 8.03721L10.5925 0Z" fill="#0C0C0C"/>
<path d="M45.5925 0H42L48.3339 8.03721L42 16H45.5925L52 8.03721L45.5925 0Z" fill="#0C0C0C"/>
<path d="M17.5925 0H14L20.3339 8.03721L14 16H17.5925L24 8.03721L17.5925 0Z" fill="#0C0C0C"/>
<path d="M31.5925 0H28L34.3339 8.03721L28 16H31.5925L38 8.03721L31.5925 0Z" fill="#0C0C0C"/>
<path d="M3.59249 0H0L6.33386 8.03721L0 16H3.59249L10 8.03721L3.59249 0Z" fill="#0C0C0C"/>
</svg>
