<svg width="18" height="21" viewBox="0 0 18 21" fill="none" xmlns="http://www.w3.org/2000/svg">
<mask id="mask0_237_1682" style="mask-type:alpha" maskUnits="userSpaceOnUse" x="0" y="0" width="18" height="21">
<rect width="18" height="21" fill="#D9D9D9"/>
</mask>
<g mask="url(#mask0_237_1682)">
<path d="M-323 -4.76837e-07C-323 -1.10457 -322.105 -2 -321 -2H16C17.1046 -2 18 -1.10457 18 0V5.928C18 6.48903 17.7644 7.02425 17.3506 7.40311L3.0733 20.4751C2.70453 20.8127 2.22269 21 1.72272 21H-321C-322.105 21 -323 20.1046 -323 19L-323 -4.76837e-07Z" fill="#7844E4"/>
<path d="M-323 -537C-323 -538.105 -322.105 -539 -321 -539H16C17.1046 -539 18 -538.105 18 -537V2.63226C18 3.18585 17.7706 3.71466 17.3663 4.09277L3.07666 17.4606C2.70615 17.8072 2.21771 18 1.71036 18H-321C-322.105 18 -323 17.1046 -323 16L-323 -537Z" fill="#222222"/>
</g>
</svg>
