<svg width="316" height="21" viewBox="0 0 316 21" fill="none" xmlns="http://www.w3.org/2000/svg">
<mask id="mask0_237_1681" style="mask-type:alpha" maskUnits="userSpaceOnUse" x="0" y="0" width="316" height="21">
<rect width="316" height="21" fill="#D9D9D9"/>
</mask>
<g mask="url(#mask0_237_1681)">
<path d="M-8 -4.76837e-07C-8 -1.10457 -7.10457 -2 -6 -2H331C332.105 -2 333 -1.10457 333 0V5.928C333 6.48903 332.764 7.02425 332.351 7.40311L318.073 20.4751C317.705 20.8127 317.223 21 316.723 21H-6C-7.10457 21 -8 20.1046 -8 19L-8 -4.76837e-07Z" fill="#7844E4"/>
<path d="M-8 -537C-8 -538.105 -7.10457 -539 -6 -539H331C332.105 -539 333 -538.105 333 -537V2.63226C333 3.18585 332.771 3.71466 332.366 4.09277L318.077 17.4606C317.706 17.8072 317.218 18 316.71 18H-6C-7.10457 18 -8 17.1046 -8 16L-8 -537Z" fill="#222222"/>
</g>
</svg>
