<svg width="8" height="21" viewBox="0 0 8 21" fill="none" xmlns="http://www.w3.org/2000/svg">
<mask id="mask0_237_1680" style="mask-type:alpha" maskUnits="userSpaceOnUse" x="0" y="0" width="8" height="21">
<rect width="8" height="21" fill="#D9D9D9"/>
</mask>
<g mask="url(#mask0_237_1680)">
<path d="M0 -4.76837e-07C0 -1.10457 0.895431 -2 2 -2H339C340.105 -2 341 -1.10457 341 0V5.928C341 6.48903 340.764 7.02425 340.351 7.40311L326.073 20.4751C325.705 20.8127 325.223 21 324.723 21H2C0.895434 21 0 20.1046 0 19L0 -4.76837e-07Z" fill="#7844E4"/>
<path d="M0 -537C0 -538.105 0.895431 -539 2 -539H339C340.105 -539 341 -538.105 341 -537V2.63226C341 3.18585 340.771 3.71466 340.366 4.09277L326.077 17.4606C325.706 17.8072 325.218 18 324.71 18H2C0.895434 18 0 17.1046 0 16L0 -537Z" fill="#222222"/>
</g>
</svg>
