<svg width="93" height="33" viewBox="0 0 93 33" fill="none" xmlns="http://www.w3.org/2000/svg">
<path d="M2.5 4C2.5 3.17157 3.17157 2.5 4 2.5H89C89.8284 2.5 90.5 3.17157 90.5 4V22.9549C90.5 23.3379 90.3535 23.7063 90.0906 23.9848L87.2134 27.0317L84.3823 30.0299C84.0989 30.3299 83.7044 30.5 83.2917 30.5H4C3.17157 30.5 2.5 29.8284 2.5 29V4Z" stroke="white"/>
<path d="M19.7378 21.748C19.9898 22 20.2558 22.126 20.5498 22.126C21.0678 22.126 21.4318 21.734 21.4318 21.062V11.738H19.7378V19.186L12.5558 12.06C12.2898 11.794 12.0658 11.696 11.7998 11.696C11.2398 11.696 10.8898 12.102 10.8898 12.76V22H12.5838V14.552L19.7378 21.748ZM27.9925 22C30.0625 22 31.5525 20.4 31.5525 18.29C31.5525 16.18 30.0925 14.73 27.9925 14.73H26.2225C24.1925 14.73 22.6925 16.15 22.6925 18.29C22.6925 20.4 24.1925 22 26.2225 22H27.9925ZM26.2225 20.73C24.9125 20.73 23.9625 19.72 23.9625 18.35C23.9625 16.97 24.9225 16 26.2225 16H27.9925C29.3325 16 30.2825 16.98 30.2825 18.35C30.2825 19.72 29.3325 20.73 27.9925 20.73H26.2225Z" fill="white"/>
<path d="M40 3H90V23.5L83.7867 30H40V3Z" fill="white"/>
<path d="M62.3721 17.393H59.6011V14.724H62.3721V17.393ZM65.6361 12.905H59.2101C58.6095 12.905 58.1108 12.956 57.7141 13.058C57.3175 13.16 57.0001 13.3357 56.7621 13.585C56.5241 13.823 56.3541 14.146 56.2521 14.554C56.1501 14.962 56.0991 15.472 56.0991 16.084V19.178H62.5251C63.1145 19.178 63.6075 19.1327 64.0041 19.042C64.4008 18.94 64.7181 18.77 64.9561 18.532C65.2055 18.294 65.3811 17.971 65.4831 17.563C65.5851 17.155 65.6361 16.645 65.6361 16.033V12.905ZM68.5431 10.1V16.084C68.5431 17.0133 68.4071 17.8463 68.1351 18.583C67.8745 19.3083 67.4891 19.926 66.9791 20.436C66.4691 20.946 65.8458 21.337 65.1091 21.609C64.3725 21.8697 63.5338 22 62.5931 22H53.2091V16.033C53.2091 15.1263 53.3395 14.3103 53.6001 13.585C53.8721 12.8483 54.2631 12.225 54.7731 11.715C55.2831 11.1937 55.9065 10.797 56.6431 10.525C57.3798 10.2417 58.2185 10.1 59.1591 10.1H68.5431ZM72.956 22V15.608C72.956 13.806 72.157 12.905 70.559 12.905H69.811V10.1H70.627C72.395 10.1 73.7096 10.542 74.571 11.426C75.4323 12.2987 75.863 13.6757 75.863 15.557V22H72.956Z" fill="#0C0C0C"/>
</svg>
