<svg width="375" height="8" viewBox="0 0 375 8" fill="none" xmlns="http://www.w3.org/2000/svg">
<path d="M64.4159 -1L58.9595 9" stroke="#F6C044" stroke-width="1.23835"/>
<path d="M230.416 -1L224.959 9" stroke="#F6C044" stroke-width="1.23835"/>
<path d="M117.915 -1L112.458 9" stroke="#F6C044" stroke-width="1.23835"/>
<path d="M283.915 -1L278.458 9" stroke="#F6C044" stroke-width="1.23835"/>
<path d="M33.2069 -1L27.7505 9" stroke="#F6C044" stroke-width="1.23835"/>
<path d="M199.207 -1L193.75 9" stroke="#F6C044" stroke-width="1.23835"/>
<path d="M95.6247 -1L90.1683 9" stroke="#F6C044" stroke-width="1.23835"/>
<path d="M261.625 -1L256.168 9" stroke="#F6C044" stroke-width="1.23835"/>
<path d="M149.124 -1L143.667 9" stroke="#F6C044" stroke-width="1.23835"/>
<path d="M315.124 -1L309.667 9" stroke="#F6C044" stroke-width="1.23835"/>
<path d="M365.207 -1L359.75 9" stroke="#F6C044" stroke-width="1.23835"/>
<path d="M55.499 -1L50.0426 9" stroke="#F6C044" stroke-width="1.23835"/>
<path d="M221.499 -1L216.043 9" stroke="#F6C044" stroke-width="1.23835"/>
<path d="M24.2901 -1L18.8337 9" stroke="#F6C044" stroke-width="1.23835"/>
<path d="M190.29 -1L184.834 9" stroke="#F6C044" stroke-width="1.23835"/>
<path d="M86.7079 -1L81.2515 9" stroke="#F6C044" stroke-width="1.23835"/>
<path d="M252.708 -1L247.251 9" stroke="#F6C044" stroke-width="1.23835"/>
<path d="M140.207 -1L134.75 9" stroke="#F6C044" stroke-width="1.23835"/>
<path d="M306.207 -1L300.75 9" stroke="#F6C044" stroke-width="1.23835"/>
<path d="M356.29 -1L350.834 9" stroke="#F6C044" stroke-width="1.23835"/>
<path d="M10.9148 -1L5.45844 9" stroke="#F6C044" stroke-width="1.23835"/>
<path d="M176.915 -1L171.458 9" stroke="#F6C044" stroke-width="1.23835"/>
<path d="M73.3326 -1L67.8762 9" stroke="#F6C044" stroke-width="1.23835"/>
<path d="M239.333 -1L233.876 9" stroke="#F6C044" stroke-width="1.23835"/>
<path d="M126.832 -1L121.375 9" stroke="#F6C044" stroke-width="1.23835"/>
<path d="M292.832 -1L287.375 9" stroke="#F6C044" stroke-width="1.23835"/>
<path d="M342.915 -1L337.458 9" stroke="#F6C044" stroke-width="1.23835"/>
<path d="M42.1237 -1L36.6673 9" stroke="#F6C044" stroke-width="1.23835"/>
<path d="M208.124 -1L202.667 9" stroke="#F6C044" stroke-width="1.23835"/>
<path d="M104.542 -1L99.0852 9" stroke="#F6C044" stroke-width="1.23835"/>
<path d="M270.542 -1L265.085 9" stroke="#F6C044" stroke-width="1.23835"/>
<path d="M158.041 -1L152.584 9" stroke="#F6C044" stroke-width="1.23835"/>
<path d="M324.041 -1L318.584 9" stroke="#F6C044" stroke-width="1.23835"/>
<path d="M374.124 -1L368.667 9" stroke="#F6C044" stroke-width="1.23835"/>
<path d="M167.456 -1L162 9" stroke="#F6C044" stroke-width="1.23835"/>
<path d="M333.456 -1L328 9" stroke="#F6C044" stroke-width="1.23835"/>
<path d="M51.0406 -1L45.5842 9" stroke="#F6C044" stroke-width="1.23835"/>
<path d="M217.041 -1L211.584 9" stroke="#F6C044" stroke-width="1.23835"/>
<path d="M19.8316 -1L14.3752 9" stroke="#F6C044" stroke-width="1.23835"/>
<path d="M185.832 -1L180.375 9" stroke="#F6C044" stroke-width="1.23835"/>
<path d="M82.2495 -1L76.7931 9" stroke="#F6C044" stroke-width="1.23835"/>
<path d="M248.249 -1L242.793 9" stroke="#F6C044" stroke-width="1.23835"/>
<path d="M135.749 -1L130.292 9" stroke="#F6C044" stroke-width="1.23835"/>
<path d="M301.749 -1L296.292 9" stroke="#F6C044" stroke-width="1.23835"/>
<path d="M351.832 -1L346.375 9" stroke="#F6C044" stroke-width="1.23835"/>
<path d="M6.45639 -1L1 9" stroke="#F6C044" stroke-width="1.23835"/>
<path d="M172.456 -1L167 9" stroke="#F6C044" stroke-width="1.23835"/>
<path d="M68.8742 -1L63.4178 9" stroke="#F6C044" stroke-width="1.23835"/>
<path d="M234.874 -1L229.418 9" stroke="#F6C044" stroke-width="1.23835"/>
<path d="M122.373 -1L116.917 9" stroke="#F6C044" stroke-width="1.23835"/>
<path d="M288.373 -1L282.917 9" stroke="#F6C044" stroke-width="1.23835"/>
<path d="M338.456 -1L333 9" stroke="#F6C044" stroke-width="1.23835"/>
<path d="M37.6653 -1L32.2089 9" stroke="#F6C044" stroke-width="1.23835"/>
<path d="M203.665 -1L198.209 9" stroke="#F6C044" stroke-width="1.23835"/>
<path d="M100.083 -1L94.6268 9" stroke="#F6C044" stroke-width="1.23835"/>
<path d="M266.083 -1L260.627 9" stroke="#F6C044" stroke-width="1.23835"/>
<path d="M153.582 -1L148.126 9" stroke="#F6C044" stroke-width="1.23835"/>
<path d="M319.582 -1L314.126 9" stroke="#F6C044" stroke-width="1.23835"/>
<path d="M369.665 -1L364.209 9" stroke="#F6C044" stroke-width="1.23835"/>
<path d="M59.9574 -1L54.501 9" stroke="#F6C044" stroke-width="1.23835"/>
<path d="M225.957 -1L220.501 9" stroke="#F6C044" stroke-width="1.23835"/>
<path d="M113.456 -1L108 9" stroke="#F6C044" stroke-width="1.23835"/>
<path d="M279.456 -1L274 9" stroke="#F6C044" stroke-width="1.23835"/>
<path d="M28.7485 -1L23.2921 9" stroke="#F6C044" stroke-width="1.23835"/>
<path d="M194.749 -1L189.292 9" stroke="#F6C044" stroke-width="1.23835"/>
<path d="M91.1664 -1L85.71 9" stroke="#F6C044" stroke-width="1.23835"/>
<path d="M257.166 -1L251.71 9" stroke="#F6C044" stroke-width="1.23835"/>
<path d="M144.665 -1L139.209 9" stroke="#F6C044" stroke-width="1.23835"/>
<path d="M310.665 -1L305.209 9" stroke="#F6C044" stroke-width="1.23835"/>
<path d="M360.749 -1L355.292 9" stroke="#F6C044" stroke-width="1.23835"/>
<path d="M15.3733 -1L9.91687 9" stroke="#F6C044" stroke-width="1.23835"/>
<path d="M181.373 -1L175.917 9" stroke="#F6C044" stroke-width="1.23835"/>
<path d="M77.7911 -1L72.3347 9" stroke="#F6C044" stroke-width="1.23835"/>
<path d="M243.791 -1L238.335 9" stroke="#F6C044" stroke-width="1.23835"/>
<path d="M131.29 -1L125.834 9" stroke="#F6C044" stroke-width="1.23835"/>
<path d="M297.29 -1L291.834 9" stroke="#F6C044" stroke-width="1.23835"/>
<path d="M347.373 -1L341.917 9" stroke="#F6C044" stroke-width="1.23835"/>
<path d="M46.5822 -1L41.1258 9" stroke="#F6C044" stroke-width="1.23835"/>
<path d="M212.582 -1L207.126 9" stroke="#F6C044" stroke-width="1.23835"/>
<path d="M109 -1L103.544 9" stroke="#F6C044" stroke-width="1.23835"/>
<path d="M275 -1L269.544 9" stroke="#F6C044" stroke-width="1.23835"/>
<path d="M162.499 -1L157.043 9" stroke="#F6C044" stroke-width="1.23835"/>
<path d="M328.499 -1L323.043 9" stroke="#F6C044" stroke-width="1.23835"/>
</svg>
