<svg width="1600" height="34" viewBox="0 0 1600 34" fill="none" xmlns="http://www.w3.org/2000/svg">
<mask id="mask0_385_2329" style="mask-type:alpha" maskUnits="userSpaceOnUse" x="0" y="-3" width="1600" height="40">
<path d="M1544.11 0L1576.33 33.6136" stroke="white" stroke-width="6"/>
<path d="M530.778 0L563 33.6136" stroke="white" stroke-width="6"/>
<path d="M1037.44 0L1069.67 33.6136" stroke="white" stroke-width="6"/>
<path d="M24.1112 0L56.3334 33.6136" stroke="white" stroke-width="6"/>
<path d="M1290.78 0L1323 33.6136" stroke="white" stroke-width="6"/>
<path d="M277.444 0L309.667 33.6136" stroke="white" stroke-width="6"/>
<path d="M784.111 0L816.333 33.6136" stroke="white" stroke-width="6"/>
<path d="M1417.44 0L1449.67 33.6136" stroke="white" stroke-width="6"/>
<path d="M404.111 0L436.333 33.6136" stroke="white" stroke-width="6"/>
<path d="M910.778 0L943 33.6136" stroke="white" stroke-width="6"/>
<path d="M1164.11 0L1196.33 33.6136" stroke="white" stroke-width="6"/>
<path d="M150.778 0L183 33.6136" stroke="white" stroke-width="6"/>
<path d="M657.444 0L689.667 33.6136" stroke="white" stroke-width="6"/>
<path d="M1480.78 0L1513 33.6136" stroke="white" stroke-width="6"/>
<path d="M467.444 0L499.667 33.6136" stroke="white" stroke-width="6"/>
<path d="M974.111 0L1006.33 33.6136" stroke="white" stroke-width="6"/>
<path d="M1227.44 0L1259.67 33.6136" stroke="white" stroke-width="6"/>
<path d="M214.111 0L246.333 33.6136" stroke="white" stroke-width="6"/>
<path d="M720.778 0L753 33.6136" stroke="white" stroke-width="6"/>
<path d="M1354.11 0L1386.33 33.6136" stroke="white" stroke-width="6"/>
<path d="M340.778 0L373 33.6136" stroke="white" stroke-width="6"/>
<path d="M847.445 0L879.667 33.6136" stroke="white" stroke-width="6"/>
<path d="M1100.78 0L1133 33.6136" stroke="white" stroke-width="6"/>
<path d="M87.4444 0L119.667 33.6136" stroke="white" stroke-width="6"/>
<path d="M594.111 0L626.333 33.6136" stroke="white" stroke-width="6"/>
<path d="M1523 0L1555.22 33.6136" stroke="white" stroke-width="6"/>
<path d="M509.667 0L541.889 33.6136" stroke="white" stroke-width="6"/>
<path d="M1016.33 0L1048.56 33.6136" stroke="white" stroke-width="6"/>
<path d="M3.00007 0L35.2223 33.6136" stroke="white" stroke-width="6"/>
<path d="M1269.67 0L1301.89 33.6136" stroke="white" stroke-width="6"/>
<path d="M256.333 0L288.556 33.6136" stroke="white" stroke-width="6"/>
<path d="M763 0L795.222 33.6136" stroke="white" stroke-width="6"/>
<path d="M1396.33 0L1428.56 33.6136" stroke="white" stroke-width="6"/>
<path d="M383 0L415.222 33.6136" stroke="white" stroke-width="6"/>
<path d="M889.667 0L921.889 33.6136" stroke="white" stroke-width="6"/>
<path d="M1143 0L1175.22 33.6136" stroke="white" stroke-width="6"/>
<path d="M129.667 0L161.889 33.6136" stroke="white" stroke-width="6"/>
<path d="M636.333 0L668.556 33.6136" stroke="white" stroke-width="6"/>
<path d="M1459.67 0L1491.89 33.6136" stroke="white" stroke-width="6"/>
<path d="M446.333 0L478.556 33.6136" stroke="white" stroke-width="6"/>
<path d="M953 0L985.222 33.6136" stroke="white" stroke-width="6"/>
<path d="M1206.33 0L1238.56 33.6136" stroke="white" stroke-width="6"/>
<path d="M193 0L225.222 33.6136" stroke="white" stroke-width="6"/>
<path d="M699.667 0L731.889 33.6136" stroke="white" stroke-width="6"/>
<path d="M1333 0L1365.22 33.6136" stroke="white" stroke-width="6"/>
<path d="M319.667 0L351.889 33.6136" stroke="white" stroke-width="6"/>
<path d="M826.333 0L858.556 33.6136" stroke="white" stroke-width="6"/>
<path d="M1079.67 0L1111.89 33.6136" stroke="white" stroke-width="6"/>
<path d="M66.3333 0L98.5555 33.6136" stroke="white" stroke-width="6"/>
<path d="M573 0L605.222 33.6136" stroke="white" stroke-width="6"/>
<path d="M1565.22 0L1597.44 34" stroke="white" stroke-width="6"/>
<path d="M551.889 0L584.111 33.6136" stroke="white" stroke-width="6"/>
<path d="M1058.56 0L1090.78 33.6136" stroke="white" stroke-width="6"/>
<path d="M45.2222 0L77.4445 33.6136" stroke="white" stroke-width="6"/>
<path d="M1311.89 0L1344.11 33.6136" stroke="white" stroke-width="6"/>
<path d="M298.556 0L330.778 33.6136" stroke="white" stroke-width="6"/>
<path d="M805.222 0L837.444 33.6136" stroke="white" stroke-width="6"/>
<path d="M1438.56 0L1470.78 33.6136" stroke="white" stroke-width="6"/>
<path d="M425.222 0L457.444 33.6136" stroke="white" stroke-width="6"/>
<path d="M931.889 0L964.111 33.6136" stroke="white" stroke-width="6"/>
<path d="M1185.22 0L1217.44 33.6136" stroke="white" stroke-width="6"/>
<path d="M171.889 0L204.111 33.6136" stroke="white" stroke-width="6"/>
<path d="M678.556 0L710.778 33.6136" stroke="white" stroke-width="6"/>
<path d="M1501.89 0L1534.11 33.6136" stroke="white" stroke-width="6"/>
<path d="M488.556 0L520.778 33.6136" stroke="white" stroke-width="6"/>
<path d="M995.222 0L1027.44 33.6136" stroke="white" stroke-width="6"/>
<path d="M1248.56 0L1280.78 33.6136" stroke="white" stroke-width="6"/>
<path d="M235.222 0L267.444 33.6136" stroke="white" stroke-width="6"/>
<path d="M741.889 0L774.111 33.6136" stroke="white" stroke-width="6"/>
<path d="M1375.22 0L1407.44 33.6136" stroke="white" stroke-width="6"/>
<path d="M361.889 0L394.111 33.6136" stroke="white" stroke-width="6"/>
<path d="M868.556 0L900.778 33.6136" stroke="white" stroke-width="6"/>
<path d="M1121.89 0L1154.11 33.6136" stroke="white" stroke-width="6"/>
<path d="M108.556 0L140.778 33.6136" stroke="white" stroke-width="6"/>
<path d="M615.222 0L647.444 33.6136" stroke="white" stroke-width="6"/>
</mask>
<g mask="url(#mask0_385_2329)">
<rect width="1604.44" height="30.2222" transform="matrix(-1 0 0 1 1601.89 1.51105)" fill="white"/>
</g>
</svg>
