<svg width="1600" height="34" viewBox="0 0 1600 34" fill="none" xmlns="http://www.w3.org/2000/svg">
<mask id="mask0_429_1880" style="mask-type:alpha" maskUnits="userSpaceOnUse" x="0" y="-3" width="1600" height="40">
<path d="M56.3333 0L24.1111 33.6136" stroke="white" stroke-width="6"/>
<path d="M1069.67 0L1037.44 33.6136" stroke="white" stroke-width="6"/>
<path d="M563 0L530.778 33.6136" stroke="white" stroke-width="6"/>
<path d="M1576.33 0L1544.11 33.6136" stroke="white" stroke-width="6"/>
<path d="M309.667 0L277.444 33.6136" stroke="white" stroke-width="6"/>
<path d="M1323 0L1290.78 33.6136" stroke="white" stroke-width="6"/>
<path d="M816.333 0L784.111 33.6136" stroke="white" stroke-width="6"/>
<path d="M183 0L150.778 33.6136" stroke="white" stroke-width="6"/>
<path d="M1196.33 0L1164.11 33.6136" stroke="white" stroke-width="6"/>
<path d="M689.667 0L657.444 33.6136" stroke="white" stroke-width="6"/>
<path d="M436.333 0L404.111 33.6136" stroke="white" stroke-width="6"/>
<path d="M1449.67 0L1417.44 33.6136" stroke="white" stroke-width="6"/>
<path d="M943 0L910.778 33.6136" stroke="white" stroke-width="6"/>
<path d="M119.667 0L87.4445 33.6136" stroke="white" stroke-width="6"/>
<path d="M1133 0L1100.78 33.6136" stroke="white" stroke-width="6"/>
<path d="M626.333 0L594.111 33.6136" stroke="white" stroke-width="6"/>
<path d="M373 0L340.778 33.6136" stroke="white" stroke-width="6"/>
<path d="M1386.33 0L1354.11 33.6136" stroke="white" stroke-width="6"/>
<path d="M879.667 0L847.444 33.6136" stroke="white" stroke-width="6"/>
<path d="M246.333 0L214.111 33.6136" stroke="white" stroke-width="6"/>
<path d="M1259.67 0L1227.44 33.6136" stroke="white" stroke-width="6"/>
<path d="M753 0L720.778 33.6136" stroke="white" stroke-width="6"/>
<path d="M499.667 0L467.444 33.6136" stroke="white" stroke-width="6"/>
<path d="M1513 0L1480.78 33.6136" stroke="white" stroke-width="6"/>
<path d="M1006.33 0L974.111 33.6136" stroke="white" stroke-width="6"/>
<path d="M77.4444 0L45.2222 33.6136" stroke="white" stroke-width="6"/>
<path d="M1090.78 0L1058.56 33.6136" stroke="white" stroke-width="6"/>
<path d="M584.111 0L551.889 33.6136" stroke="white" stroke-width="6"/>
<path d="M1597.44 0L1565.22 33.6136" stroke="white" stroke-width="6"/>
<path d="M330.778 0L298.556 33.6136" stroke="white" stroke-width="6"/>
<path d="M1344.11 0L1311.89 33.6136" stroke="white" stroke-width="6"/>
<path d="M837.444 0L805.222 33.6136" stroke="white" stroke-width="6"/>
<path d="M204.111 0L171.889 33.6136" stroke="white" stroke-width="6"/>
<path d="M1217.44 0L1185.22 33.6136" stroke="white" stroke-width="6"/>
<path d="M710.778 0L678.556 33.6136" stroke="white" stroke-width="6"/>
<path d="M457.444 0L425.222 33.6136" stroke="white" stroke-width="6"/>
<path d="M1470.78 0L1438.56 33.6136" stroke="white" stroke-width="6"/>
<path d="M964.111 0L931.889 33.6136" stroke="white" stroke-width="6"/>
<path d="M140.778 0L108.556 33.6136" stroke="white" stroke-width="6"/>
<path d="M1154.11 0L1121.89 33.6136" stroke="white" stroke-width="6"/>
<path d="M647.444 0L615.222 33.6136" stroke="white" stroke-width="6"/>
<path d="M394.111 0L361.889 33.6136" stroke="white" stroke-width="6"/>
<path d="M1407.44 0L1375.22 33.6136" stroke="white" stroke-width="6"/>
<path d="M900.778 0L868.556 33.6136" stroke="white" stroke-width="6"/>
<path d="M267.444 0L235.222 33.6136" stroke="white" stroke-width="6"/>
<path d="M1280.78 0L1248.56 33.6136" stroke="white" stroke-width="6"/>
<path d="M774.111 0L741.889 33.6136" stroke="white" stroke-width="6"/>
<path d="M520.778 0L488.556 33.6136" stroke="white" stroke-width="6"/>
<path d="M1534.11 0L1501.89 33.6136" stroke="white" stroke-width="6"/>
<path d="M1027.44 0L995.222 33.6136" stroke="white" stroke-width="6"/>
<path d="M35.2222 0L3 34" stroke="white" stroke-width="6"/>
<path d="M1048.56 0L1016.33 33.6136" stroke="white" stroke-width="6"/>
<path d="M541.889 0L509.667 33.6136" stroke="white" stroke-width="6"/>
<path d="M1555.22 0L1523 33.6136" stroke="white" stroke-width="6"/>
<path d="M288.556 0L256.333 33.6136" stroke="white" stroke-width="6"/>
<path d="M1301.89 0L1269.67 33.6136" stroke="white" stroke-width="6"/>
<path d="M795.222 0L763 33.6136" stroke="white" stroke-width="6"/>
<path d="M161.889 0L129.667 33.6136" stroke="white" stroke-width="6"/>
<path d="M1175.22 0L1143 33.6136" stroke="white" stroke-width="6"/>
<path d="M668.556 0L636.333 33.6136" stroke="white" stroke-width="6"/>
<path d="M415.222 0L383 33.6136" stroke="white" stroke-width="6"/>
<path d="M1428.56 0L1396.33 33.6136" stroke="white" stroke-width="6"/>
<path d="M921.889 0L889.667 33.6136" stroke="white" stroke-width="6"/>
<path d="M98.5556 0L66.3333 33.6136" stroke="white" stroke-width="6"/>
<path d="M1111.89 0L1079.67 33.6136" stroke="white" stroke-width="6"/>
<path d="M605.222 0L573 33.6136" stroke="white" stroke-width="6"/>
<path d="M351.889 0L319.667 33.6136" stroke="white" stroke-width="6"/>
<path d="M1365.22 0L1333 33.6136" stroke="white" stroke-width="6"/>
<path d="M858.555 0L826.333 33.6136" stroke="white" stroke-width="6"/>
<path d="M225.222 0L193 33.6136" stroke="white" stroke-width="6"/>
<path d="M1238.56 0L1206.33 33.6136" stroke="white" stroke-width="6"/>
<path d="M731.889 0L699.667 33.6136" stroke="white" stroke-width="6"/>
<path d="M478.556 0L446.333 33.6136" stroke="white" stroke-width="6"/>
<path d="M1491.89 0L1459.67 33.6136" stroke="white" stroke-width="6"/>
<path d="M985.222 0L953 33.6136" stroke="white" stroke-width="6"/>
</mask>
<g mask="url(#mask0_429_1880)">
<rect x="-1.44446" y="1.51105" width="1604.44" height="30.2222" fill="white"/>
</g>
</svg>
