<svg width="94" height="34" viewBox="0 0 94 34" fill="none" xmlns="http://www.w3.org/2000/svg">
<path d="M0 13.2702C0 12.6718 0.267951 12.1048 0.730301 11.7249L14.4466 0.454727C14.8044 0.160718 15.2532 0 15.7163 0H92C93.1046 0 94 0.89543 94 2V20.7717C94 21.3651 93.7365 21.9279 93.2807 22.3079L79.8124 33.5362C79.4529 33.8359 78.9997 34 78.5317 34H2C0.895429 34 0 33.1046 0 32V13.2702Z" fill="#EB346E"/>
<path d="M41.316 23L38.712 13.424C38.572 12.934 38.292 12.696 37.858 12.696C37.48 12.696 37.172 12.906 37.004 13.298L33.868 20.494L30.732 13.298C30.564 12.906 30.214 12.696 29.836 12.696C29.36 12.696 29.08 12.934 28.954 13.424L26.336 23H28.086L30.032 15.846L32.902 22.468C33.084 22.902 33.392 23.14 33.812 23.14C34.246 23.14 34.526 22.902 34.722 22.468L37.606 15.846L39.552 23H41.316ZM44.3713 23V12.822H42.5933V23H44.3713ZM55.0337 22.748C55.2857 23 55.5517 23.126 55.8457 23.126C56.3637 23.126 56.7277 22.734 56.7277 22.062V12.738H55.0337V20.186L47.8517 13.06C47.5857 12.794 47.3617 12.696 47.0957 12.696C46.5357 12.696 46.1857 13.102 46.1857 13.76V23H47.8797V15.552L55.0337 22.748ZM63.4904 23V14.6H67.3544V12.822H57.8484V14.6H61.7124V23H63.4904Z" fill="white"/>
</svg>
