
<svg width="1440" height="556" viewBox="0 0 1440 556" fill="none" xmlns="http://www.w3.org/2000/svg">
<g opacity="0.4">
<mask id="mask0_182_1759" style="mask-type:alpha" maskUnits="userSpaceOnUse" x="0" y="0" width="1440" height="556">
<rect width="1440" height="556" fill="#D9D9D9"/>
</mask>
<g mask="url(#mask0_182_1759)">
<rect x="145.357" y="27.7808" width="1.37742" height="8.26453" fill="#D9D9D9"/>
<rect x="145.357" y="355.607" width="1.37742" height="8.26453" fill="#D9D9D9"/>
<rect x="145.357" y="191.694" width="1.37742" height="8.26453" fill="#D9D9D9"/>
<rect x="145.357" y="519.52" width="1.37742" height="8.26453" fill="#D9D9D9"/>
<rect x="309.27" y="27.7808" width="1.37742" height="8.26453" fill="#D9D9D9"/>
<rect x="309.27" y="355.607" width="1.37742" height="8.26453" fill="#D9D9D9"/>
<rect x="309.27" y="191.694" width="1.37742" height="8.26453" fill="#D9D9D9"/>
<rect x="309.27" y="519.52" width="1.37742" height="8.26453" fill="#D9D9D9"/>
<rect x="801.009" y="27.7808" width="1.37742" height="8.26453" fill="#D9D9D9"/>
<rect x="801.009" y="355.607" width="1.37742" height="8.26453" fill="#D9D9D9"/>
<rect x="801.009" y="191.694" width="1.37742" height="8.26453" fill="#D9D9D9"/>
<rect x="801.009" y="519.52" width="1.37742" height="8.26453" fill="#D9D9D9"/>
<rect x="473.183" y="27.7808" width="1.37742" height="8.26453" fill="#D9D9D9"/>
<rect x="473.183" y="355.607" width="1.37742" height="8.26453" fill="#D9D9D9"/>
<rect x="473.183" y="191.694" width="1.37742" height="8.26453" fill="#D9D9D9"/>
<rect x="473.183" y="519.52" width="1.37742" height="8.26453" fill="#D9D9D9"/>
<rect x="964.922" y="27.7808" width="1.37742" height="8.26453" fill="#D9D9D9"/>
<rect x="964.922" y="355.607" width="1.37742" height="8.26453" fill="#D9D9D9"/>
<rect x="964.922" y="191.694" width="1.37742" height="8.26453" fill="#D9D9D9"/>
<rect x="964.922" y="519.52" width="1.37742" height="8.26453" fill="#D9D9D9"/>
<rect x="1292.75" y="27.7808" width="1.37742" height="8.26453" fill="#D9D9D9"/>
<rect x="1292.75" y="355.607" width="1.37742" height="8.26453" fill="#D9D9D9"/>
<rect x="1292.75" y="191.694" width="1.37742" height="8.26453" fill="#D9D9D9"/>
<rect x="1292.75" y="519.52" width="1.37742" height="8.26453" fill="#D9D9D9"/>
<rect x="637.096" y="27.7808" width="1.37742" height="8.26453" fill="#D9D9D9"/>
<rect x="637.096" y="355.607" width="1.37742" height="8.26453" fill="#D9D9D9"/>
<rect x="637.096" y="191.694" width="1.37742" height="8.26453" fill="#D9D9D9"/>
<rect x="637.096" y="519.52" width="1.37742" height="8.26453" fill="#D9D9D9"/>
<rect x="1128.84" y="27.7808" width="1.37742" height="8.26453" fill="#D9D9D9"/>
<rect x="1128.84" y="355.607" width="1.37742" height="8.26453" fill="#D9D9D9"/>
<rect x="1128.84" y="191.694" width="1.37742" height="8.26453" fill="#D9D9D9"/>
<rect x="1128.84" y="519.52" width="1.37742" height="8.26453" fill="#D9D9D9"/>
<rect x="150.177" y="31.2244" width="1.37742" height="8.26453" transform="rotate(90 150.177 31.2244)" fill="#D9D9D9"/>
<rect x="150.177" y="359.051" width="1.37742" height="8.26453" transform="rotate(90 150.177 359.051)" fill="#D9D9D9"/>
<rect x="150.177" y="195.137" width="1.37742" height="8.26453" transform="rotate(90 150.177 195.137)" fill="#D9D9D9"/>
<rect x="150.177" y="522.964" width="1.37742" height="8.26453" transform="rotate(90 150.177 522.964)" fill="#D9D9D9"/>
<rect x="314.091" y="31.2244" width="1.37742" height="8.26453" transform="rotate(90 314.091 31.2244)" fill="#D9D9D9"/>
<rect x="314.091" y="359.051" width="1.37742" height="8.26453" transform="rotate(90 314.091 359.051)" fill="#D9D9D9"/>
<rect x="314.091" y="195.137" width="1.37742" height="8.26453" transform="rotate(90 314.091 195.137)" fill="#D9D9D9"/>
<rect x="314.091" y="522.964" width="1.37742" height="8.26453" transform="rotate(90 314.091 522.964)" fill="#D9D9D9"/>
<rect x="805.83" y="31.2244" width="1.37742" height="8.26453" transform="rotate(90 805.83 31.2244)" fill="#D9D9D9"/>
<rect x="805.83" y="359.051" width="1.37742" height="8.26453" transform="rotate(90 805.83 359.051)" fill="#D9D9D9"/>
<rect x="805.83" y="195.137" width="1.37742" height="8.26453" transform="rotate(90 805.83 195.137)" fill="#D9D9D9"/>
<rect x="805.83" y="522.964" width="1.37742" height="8.26453" transform="rotate(90 805.83 522.964)" fill="#D9D9D9"/>
<rect x="478.004" y="31.2244" width="1.37742" height="8.26453" transform="rotate(90 478.004 31.2244)" fill="#D9D9D9"/>
<rect x="478.004" y="359.051" width="1.37742" height="8.26453" transform="rotate(90 478.004 359.051)" fill="#D9D9D9"/>
<rect x="478.004" y="195.137" width="1.37742" height="8.26453" transform="rotate(90 478.004 195.137)" fill="#D9D9D9"/>
<rect x="478.004" y="522.964" width="1.37742" height="8.26453" transform="rotate(90 478.004 522.964)" fill="#D9D9D9"/>
<rect x="969.743" y="31.2244" width="1.37742" height="8.26453" transform="rotate(90 969.743 31.2244)" fill="#D9D9D9"/>
<rect x="969.743" y="359.051" width="1.37742" height="8.26453" transform="rotate(90 969.743 359.051)" fill="#D9D9D9"/>
<rect x="969.743" y="195.137" width="1.37742" height="8.26453" transform="rotate(90 969.743 195.137)" fill="#D9D9D9"/>
<rect x="969.743" y="522.964" width="1.37742" height="8.26453" transform="rotate(90 969.743 522.964)" fill="#D9D9D9"/>
<rect x="1297.57" y="31.2244" width="1.37742" height="8.26453" transform="rotate(90 1297.57 31.2244)" fill="#D9D9D9"/>
<rect x="1297.57" y="359.051" width="1.37742" height="8.26453" transform="rotate(90 1297.57 359.051)" fill="#D9D9D9"/>
<rect x="1297.57" y="195.137" width="1.37742" height="8.26453" transform="rotate(90 1297.57 195.137)" fill="#D9D9D9"/>
<rect x="1297.57" y="522.964" width="1.37742" height="8.26453" transform="rotate(90 1297.57 522.964)" fill="#D9D9D9"/>
<rect x="641.917" y="31.2244" width="1.37742" height="8.26453" transform="rotate(90 641.917 31.2244)" fill="#D9D9D9"/>
<rect x="641.917" y="359.051" width="1.37742" height="8.26453" transform="rotate(90 641.917 359.051)" fill="#D9D9D9"/>
<rect x="641.917" y="195.137" width="1.37742" height="8.26453" transform="rotate(90 641.917 195.137)" fill="#D9D9D9"/>
<rect x="641.917" y="522.964" width="1.37742" height="8.26453" transform="rotate(90 641.917 522.964)" fill="#D9D9D9"/>
<rect x="1133.66" y="31.2244" width="1.37742" height="8.26453" transform="rotate(90 1133.66 31.2244)" fill="#D9D9D9"/>
<rect x="1133.66" y="359.051" width="1.37742" height="8.26453" transform="rotate(90 1133.66 359.051)" fill="#D9D9D9"/>
<rect x="1133.66" y="195.137" width="1.37742" height="8.26453" transform="rotate(90 1133.66 195.137)" fill="#D9D9D9"/>
<rect x="1133.66" y="522.964" width="1.37742" height="8.26453" transform="rotate(90 1133.66 522.964)" fill="#D9D9D9"/>
<rect opacity="0.1" x="-17.8677" y="-132" width="163.913" height="163.913" stroke="white"/>
<rect opacity="0.1" x="-17.8677" y="195.826" width="163.913" height="163.913" stroke="white"/>
<rect opacity="0.1" x="-17.8677" y="523.652" width="163.913" height="163.913" stroke="white"/>
<rect opacity="0.1" x="-17.8677" y="31.9131" width="163.913" height="163.913" stroke="white"/>
<rect opacity="0.1" x="-17.8677" y="359.739" width="163.913" height="163.913" stroke="white"/>
<rect opacity="0.1" x="146.045" y="-132" width="163.913" height="163.913" stroke="white"/>
<rect opacity="0.1" x="146.045" y="195.826" width="163.913" height="163.913" stroke="white"/>
<rect opacity="0.1" x="146.045" y="523.652" width="163.913" height="163.913" stroke="white"/>
<rect opacity="0.1" x="146.045" y="31.9131" width="163.913" height="163.913" stroke="white"/>
<rect opacity="0.1" x="146.045" y="359.739" width="163.913" height="163.913" stroke="white"/>
<rect opacity="0.1" x="637.784" y="-132" width="163.913" height="163.913" stroke="white"/>
<rect opacity="0.1" x="637.784" y="195.826" width="163.913" height="163.913" stroke="white"/>
<rect opacity="0.1" x="637.784" y="523.652" width="163.913" height="163.913" stroke="white"/>
<rect opacity="0.1" x="637.784" y="31.9131" width="163.913" height="163.913" stroke="white"/>
<rect opacity="0.1" x="637.784" y="359.739" width="163.913" height="163.913" stroke="white"/>
<rect opacity="0.1" x="309.958" y="-132" width="163.913" height="163.913" stroke="white"/>
<rect opacity="0.1" x="309.958" y="195.826" width="163.913" height="163.913" stroke="white"/>
<rect opacity="0.1" x="309.958" y="523.652" width="163.913" height="163.913" stroke="white"/>
<rect opacity="0.1" x="309.958" y="31.9131" width="163.913" height="163.913" stroke="white"/>
<rect opacity="0.1" x="309.958" y="359.739" width="163.913" height="163.913" stroke="white"/>
<rect opacity="0.1" x="801.698" y="-132" width="163.913" height="163.913" stroke="white"/>
<rect opacity="0.1" x="801.698" y="195.826" width="163.913" height="163.913" stroke="white"/>
<rect opacity="0.1" x="801.698" y="523.652" width="163.913" height="163.913" stroke="white"/>
<rect opacity="0.1" x="801.698" y="31.9131" width="163.913" height="163.913" stroke="white"/>
<rect opacity="0.1" x="801.698" y="359.739" width="163.913" height="163.913" stroke="white"/>
<rect opacity="0.1" x="1129.52" y="-132" width="163.913" height="163.913" stroke="white"/>
<rect opacity="0.1" x="1129.52" y="195.826" width="163.913" height="163.913" stroke="white"/>
<rect opacity="0.1" x="1129.52" y="523.652" width="163.913" height="163.913" stroke="white"/>
<rect opacity="0.1" x="1129.52" y="31.9131" width="163.913" height="163.913" stroke="white"/>
<rect opacity="0.1" x="1129.52" y="359.739" width="163.913" height="163.913" stroke="white"/>
<rect opacity="0.1" x="473.871" y="-132" width="163.913" height="163.913" stroke="white"/>
<rect opacity="0.1" x="473.871" y="195.826" width="163.913" height="163.913" stroke="white"/>
<rect opacity="0.1" x="473.871" y="523.652" width="163.913" height="163.913" stroke="white"/>
<rect opacity="0.1" x="473.871" y="31.9131" width="163.913" height="163.913" stroke="white"/>
<rect opacity="0.1" x="473.871" y="359.739" width="163.913" height="163.913" stroke="white"/>
<rect opacity="0.1" x="965.611" y="-132" width="163.913" height="163.913" stroke="white"/>
<rect opacity="0.1" x="965.611" y="195.826" width="163.913" height="163.913" stroke="white"/>
<rect opacity="0.1" x="965.611" y="523.652" width="163.913" height="163.913" stroke="white"/>
<rect opacity="0.1" x="965.611" y="31.9131" width="163.913" height="163.913" stroke="white"/>
<rect opacity="0.1" x="965.611" y="359.739" width="163.913" height="163.913" stroke="white"/>
<rect opacity="0.1" x="1293.44" y="-132" width="163.913" height="163.913" stroke="white"/>
<rect opacity="0.1" x="1293.44" y="195.826" width="163.913" height="163.913" stroke="white"/>
<rect opacity="0.1" x="1293.44" y="523.652" width="163.913" height="163.913" stroke="white"/>
<rect opacity="0.1" x="1293.44" y="31.9131" width="163.913" height="163.913" stroke="white"/>
<rect opacity="0.1" x="1293.44" y="359.739" width="163.913" height="163.913" stroke="white"/>
</g>
</g>
<rect width="1440" height="556" fill="url(#paint0_radial_182_1759)"/>
<defs>
<radialGradient id="paint0_radial_182_1759" cx="0" cy="0" r="1" gradientUnits="userSpaceOnUse" gradientTransform="translate(720 278) rotate(90) scale(278 720)">
<stop stop-color="#0C0C0C" stop-opacity="0"/>
<stop offset="1" stop-color="#0C0C0C"/>
</radialGradient>
</defs>
</svg>
