<svg width="105" height="30" viewBox="0 0 105 30" fill="none" xmlns="http://www.w3.org/2000/svg">
<rect x="105" y="30" width="1" height="30" transform="rotate(-180 105 30)" fill="#595959"/>
<rect x="96" y="30" width="2" height="30" transform="rotate(-180 96 30)" fill="#595959"/>
<rect x="85" y="30" width="2" height="30" transform="rotate(-180 85 30)" fill="#595959"/>
<rect x="81" y="30" width="2" height="30" transform="rotate(-180 81 30)" fill="#595959"/>
<rect x="92" y="30" width="2" height="30" transform="rotate(-180 92 30)" fill="#595959"/>
<rect x="88" y="30" width="1" height="30" transform="rotate(-180 88 30)" fill="#595959"/>
<rect x="77" y="30" width="1" height="30" transform="rotate(-180 77 30)" fill="#595959"/>
<rect x="69" y="30" width="1" height="30" transform="rotate(-180 69 30)" fill="#595959"/>
<rect x="58" y="30" width="1" height="30" transform="rotate(-180 58 30)" fill="#595959"/>
<rect x="52" y="30" width="1" height="30" transform="rotate(-180 52 30)" fill="#595959"/>
<rect x="55" y="30" width="1" height="30" transform="rotate(-180 55 30)" fill="#595959"/>
<rect x="49" y="30" width="1" height="30" transform="rotate(-180 49 30)" fill="#595959"/>
<rect x="43" y="30" width="1" height="30" transform="rotate(-180 43 30)" fill="#595959"/>
<rect x="23" y="30" width="1" height="30" transform="rotate(-180 23 30)" fill="#595959"/>
<rect x="15" y="30" width="1" height="30" transform="rotate(-180 15 30)" fill="#595959"/>
<rect x="7" y="30" width="1" height="30" transform="rotate(-180 7 30)" fill="#595959"/>
<rect x="4" y="30" width="1" height="30" transform="rotate(-180 4 30)" fill="#595959"/>
<rect x="1" y="30" width="1" height="30" transform="rotate(-180 1 30)" fill="#595959"/>
<rect x="40" y="30" width="2" height="30" transform="rotate(-180 40 30)" fill="#595959"/>
<rect x="36" y="30" width="2" height="30" transform="rotate(-180 36 30)" fill="#595959"/>
<rect x="12" y="30" width="3" height="30" transform="rotate(-180 12 30)" fill="#595959"/>
<rect x="32" y="30" width="2" height="30" transform="rotate(-180 32 30)" fill="#595959"/>
<rect x="28" y="30" width="3" height="30" transform="rotate(-180 28 30)" fill="#595959"/>
<rect x="20" y="30" width="3" height="30" transform="rotate(-180 20 30)" fill="#595959"/>
<rect x="73" y="30" width="2" height="30" transform="rotate(-180 73 30)" fill="#595959"/>
<rect x="66" y="30" width="6" height="30" transform="rotate(-180 66 30)" fill="#595959"/>
<rect x="103" y="30" width="2" height="30" transform="rotate(-180 103 30)" fill="#595959"/>
<rect x="100" y="30" width="3" height="30" transform="rotate(-180 100 30)" fill="#595959"/>
</svg>
