<svg width="93" height="33" viewBox="0 0 93 33" fill="none" xmlns="http://www.w3.org/2000/svg">
<path d="M2.5 4C2.5 3.17157 3.17157 2.5 4 2.5H89C89.8284 2.5 90.5 3.17157 90.5 4V22.9549C90.5 23.3379 90.3535 23.7063 90.0906 23.9848L87.2134 27.0317L84.3823 30.0299C84.0989 30.3299 83.7044 30.5 83.2917 30.5H4C3.17157 30.5 2.5 29.8284 2.5 29V4Z" stroke="white"/>
<path d="M19.7378 21.748C19.9898 22 20.2558 22.126 20.5498 22.126C21.0678 22.126 21.4318 21.734 21.4318 21.062V11.738H19.7378V19.186L12.5558 12.06C12.2898 11.794 12.0658 11.696 11.7998 11.696C11.2398 11.696 10.8898 12.102 10.8898 12.76V22H12.5838V14.552L19.7378 21.748ZM27.9925 22C30.0625 22 31.5525 20.4 31.5525 18.29C31.5525 16.18 30.0925 14.73 27.9925 14.73H26.2225C24.1925 14.73 22.6925 16.15 22.6925 18.29C22.6925 20.4 24.1925 22 26.2225 22H27.9925ZM26.2225 20.73C24.9125 20.73 23.9625 19.72 23.9625 18.35C23.9625 16.97 24.9225 16 26.2225 16H27.9925C29.3325 16 30.2825 16.98 30.2825 18.35C30.2825 19.72 29.3325 20.73 27.9925 20.73H26.2225Z" fill="white"/>
<path d="M40 3H90V23.5L83.7867 30H40V3Z" fill="white"/>
<path d="M58.3233 17.393H55.5523V14.724H58.3233V17.393ZM61.5873 12.905H55.1613C54.5606 12.905 54.062 12.956 53.6653 13.058C53.2687 13.16 52.9513 13.3357 52.7133 13.585C52.4753 13.823 52.3053 14.146 52.2033 14.554C52.1013 14.962 52.0503 15.472 52.0503 16.084V19.178H58.4763C59.0657 19.178 59.5587 19.1327 59.9553 19.042C60.352 18.94 60.6693 18.77 60.9073 18.532C61.1567 18.294 61.3323 17.971 61.4343 17.563C61.5363 17.155 61.5873 16.645 61.5873 16.033V12.905ZM64.4943 10.1V16.084C64.4943 17.0133 64.3583 17.8463 64.0863 18.583C63.8257 19.3083 63.4403 19.926 62.9303 20.436C62.4203 20.946 61.797 21.337 61.0603 21.609C60.3237 21.8697 59.485 22 58.5443 22H49.1603V16.033C49.1603 15.1263 49.2906 14.3103 49.5513 13.585C49.8233 12.8483 50.2143 12.225 50.7243 11.715C51.2343 11.1937 51.8576 10.797 52.5943 10.525C53.331 10.2417 54.1697 10.1 55.1103 10.1H64.4943ZM80.9601 22H66.2551V14.724H78.2401C78.0588 13.5113 77.3845 12.905 76.2171 12.905H66.2551V10.1H75.6051C79.2205 10.1 81.0281 11.7717 81.0281 15.115V17.393H69.0091V19.178H80.9601V22Z" fill="#0C0C0C"/>
</svg>
