<svg width="93" height="33" viewBox="0 0 93 33" fill="none" xmlns="http://www.w3.org/2000/svg">
<path d="M2.5 4C2.5 3.17157 3.17157 2.5 4 2.5H89C89.8284 2.5 90.5 3.17157 90.5 4V22.9549C90.5 23.3379 90.3535 23.7063 90.0906 23.9848L87.2134 27.0317L84.3823 30.0299C84.0989 30.3299 83.7044 30.5 83.2917 30.5H4C3.17157 30.5 2.5 29.8284 2.5 29V4Z" stroke="white"/>
<path d="M19.7378 21.748C19.9898 22 20.2558 22.126 20.5498 22.126C21.0678 22.126 21.4318 21.734 21.4318 21.062V11.738H19.7378V19.186L12.5558 12.06C12.2898 11.794 12.0658 11.696 11.7998 11.696C11.2398 11.696 10.8898 12.102 10.8898 12.76V22H12.5838V14.552L19.7378 21.748ZM27.9925 22C30.0625 22 31.5525 20.4 31.5525 18.29C31.5525 16.18 30.0925 14.73 27.9925 14.73H26.2225C24.1925 14.73 22.6925 16.15 22.6925 18.29C22.6925 20.4 24.1925 22 26.2225 22H27.9925ZM26.2225 20.73C24.9125 20.73 23.9625 19.72 23.9625 18.35C23.9625 16.97 24.9225 16 26.2225 16H27.9925C29.3325 16 30.2825 16.98 30.2825 18.35C30.2825 19.72 29.3325 20.73 27.9925 20.73H26.2225Z" fill="white"/>
<path d="M40 3H90V23.5L83.7867 30H40V3Z" fill="white"/>
<path d="M58.1324 17.393H55.3614V14.724H58.1324V17.393ZM61.3964 12.905H54.9704C54.3697 12.905 53.8711 12.956 53.4744 13.058C53.0777 13.16 52.7604 13.3357 52.5224 13.585C52.2844 13.823 52.1144 14.146 52.0124 14.554C51.9104 14.962 51.8594 15.472 51.8594 16.084V19.178H58.2854C58.8747 19.178 59.3677 19.1327 59.7644 19.042C60.1611 18.94 60.4784 18.77 60.7164 18.532C60.9657 18.294 61.1414 17.971 61.2434 17.563C61.3454 17.155 61.3964 16.645 61.3964 16.033V12.905ZM64.3034 10.1V16.084C64.3034 17.0133 64.1674 17.8463 63.8954 18.583C63.6347 19.3083 63.2494 19.926 62.7394 20.436C62.2294 20.946 61.6061 21.337 60.8694 21.609C60.1327 21.8697 59.2941 22 58.3534 22H48.9694V16.033C48.9694 15.1263 49.0997 14.3103 49.3604 13.585C49.6324 12.8483 50.0234 12.225 50.5334 11.715C51.0434 11.1937 51.6667 10.797 52.4034 10.525C53.1401 10.2417 53.9787 10.1 54.9194 10.1H64.3034ZM81.0242 10.1V16.084C81.0242 17.0133 80.8939 17.8463 80.6332 18.583C80.3726 19.3083 79.9872 19.926 79.4772 20.436C78.9672 20.946 78.3439 21.337 77.6072 21.609C76.8706 21.8697 76.0262 22 75.0742 22H66.3532V19.178H75.0232C75.9072 19.178 76.5759 19.042 77.0292 18.77C77.4826 18.4867 77.7999 18.0277 77.9812 17.393H71.2492V14.724H78.1342V12.905H71.0792C69.9006 12.905 69.2262 13.5113 69.0562 14.724H66.2852C66.4212 11.6413 68.2289 10.1 71.7082 10.1H81.0242Z" fill="#0C0C0C"/>
</svg>
