<svg width="192" height="42" viewBox="0 0 192 42" fill="none" xmlns="http://www.w3.org/2000/svg">
<path d="M10.5246 39.2169H0V2C0 0.895432 0.895425 0 1.99999 0H191.16L152.84 35.6747H139L131.5 40.1333H107.5L100.469 35.6747H61.2586L59.3696 33.6506L57.2107 35.6747H19.6999L12.9534 42L10.5246 39.2169Z" fill="#7844E4"/>
<rect width="1" height="2" rx="0.5" transform="matrix(-1 0 0 1 111 36)" fill="white"/>
<rect width="1" height="2" rx="0.5" transform="matrix(-1 0 0 1 129 36)" fill="white"/>
<rect width="1" height="2" rx="0.5" transform="matrix(-1 0 0 1 131 36)" fill="white"/>
<rect width="1" height="3" rx="0.5" transform="matrix(1.19249e-08 -1 -1 -1.19249e-08 5 37)" fill="white"/>
<rect width="1" height="1" rx="0.5" transform="matrix(1.19249e-08 -1 -1 -1.19249e-08 8 37)" fill="white"/>
<rect width="1" height="1" rx="0.5" transform="matrix(-1 0 0 1 109 37)" fill="white"/>
<rect width="1" height="1" rx="0.5" transform="matrix(-1 0 0 1 113 37)" fill="white"/>
</svg>
