<svg width="720" height="30" viewBox="0 0 720 30" fill="none" xmlns="http://www.w3.org/2000/svg">
<path fill-rule="evenodd" clip-rule="evenodd" d="M633.373 14.4352L629.964 18.6885H616.899L613.491 14.4352H535.669L526.5 25.3356L517.491 18.6559H498.746L490.225 11.9916H453.87L443.077 18.1161H361.846L356.166 7.07356L347.645 21.7969L344.805 18.1161H269.254L264.71 23.6373H244.828L240.284 18.1161L155.012 18.1161L145 30L127 7.37705L117.988 14.4352L0 14.4352V0H720V14.4352L690.5 14.4352L688.5 17.4667L685 14.4352L682 12.0569L680.5 14.4352H633.373ZM144.984 23.6066C144.44 23.6066 144 23.1662 144 22.623C144 22.0797 144.44 21.6393 144.984 21.6393H145.016C145.56 21.6393 146 22.0797 146 22.623C146 23.1662 145.56 23.6066 145.016 23.6066H144.984ZM146 19.6721C146 20.2154 146.44 20.6557 146.984 20.6557H147.016C147.56 20.6557 148 20.2154 148 19.6721C148 19.1289 147.56 18.6885 147.016 18.6885H146.984C146.44 18.6885 146 19.1289 146 19.6721ZM142.984 20.6557C142.44 20.6557 142 20.2154 142 19.6721C142 19.1289 142.44 18.6885 142.984 18.6885H143.016C143.56 18.6885 144 19.1289 144 19.6721C144 20.2154 143.56 20.6557 143.016 20.6557H142.984ZM245 20.6557C245 21.199 245.44 21.6393 245.984 21.6393H250.016C250.56 21.6393 251 21.199 251 20.6557C251 20.1125 250.56 19.6721 250.016 19.6721H245.984C245.44 19.6721 245 20.1125 245 20.6557ZM110.984 12.0569C110.44 12.0569 110 11.6165 110 11.0733C110 10.53 110.44 10.0897 110.984 10.0897H115.016C115.56 10.0897 116 10.53 116 11.0733C116 11.6165 115.56 12.0569 115.016 12.0569H110.984ZM4 11.0733C4 11.6165 4.44038 12.0569 4.98361 12.0569H9.01639C9.55962 12.0569 10 11.6165 10 11.0733C10 10.53 9.55962 10.0897 9.01639 10.0897H4.98361C4.44038 10.0897 4 10.53 4 11.0733ZM502 15.9749C502 16.5272 501.552 16.9749 501 16.9749C500.448 16.9749 500 16.5272 500 15.9749V13.0569C500 12.5046 500.448 12.0569 501 12.0569C501.552 12.0569 502 12.5046 502 13.0569V15.9749ZM509 16.9749C509.552 16.9749 510 16.5272 510 15.9749V13.0569C510 12.5046 509.552 12.0569 509 12.0569C508.448 12.0569 508 12.5046 508 13.0569V15.9749C508 16.5272 508.448 16.9749 509 16.9749ZM621.016 14.7541C621.56 14.7541 622 15.1945 622 15.7377C622 16.2809 621.56 16.7213 621.016 16.7213H617.984C617.44 16.7213 617 16.2809 617 15.7377C617 15.1945 617.44 14.7541 617.984 14.7541H621.016ZM629 15.7377C629 15.1945 628.56 14.7541 628.016 14.7541H627.984C627.44 14.7541 627 15.1945 627 15.7377C627 16.2809 627.44 16.7213 627.984 16.7213H628.016C628.56 16.7213 629 16.2809 629 15.7377ZM506 15.9749C506 16.5272 505.552 16.9749 505 16.9749C504.448 16.9749 504 16.5272 504 15.9749V15.0241C504 14.4718 504.448 14.0241 505 14.0241C505.552 14.0241 506 14.4718 506 15.0241V15.9749ZM253 20.6557C253 21.199 253.44 21.6393 253.984 21.6393H254.016C254.56 21.6393 255 21.199 255 20.6557C255 20.1125 254.56 19.6721 254.016 19.6721H253.984C253.44 19.6721 253 20.1125 253 20.6557ZM366.984 15.7377C366.44 15.7377 366 15.2973 366 14.7541C366 14.2109 366.44 13.7705 366.984 13.7705H367.016C367.56 13.7705 368 14.2109 368 14.7541C368 15.2973 367.56 15.7377 367.016 15.7377H366.984ZM368 11.8033C368 12.3465 368.44 12.7869 368.984 12.7869H369.016C369.56 12.7869 370 12.3465 370 11.8033C370 11.2601 369.56 10.8197 369.016 10.8197H368.984C368.44 10.8197 368 11.2601 368 11.8033ZM364.984 12.7869C364.44 12.7869 364 12.3465 364 11.8033C364 11.2601 364.44 10.8197 364.984 10.8197H365.016C365.56 10.8197 366 11.2601 366 11.8033C366 12.3465 365.56 12.7869 365.016 12.7869H364.984Z" fill="#0C0C0C"/>
</svg>
