<svg width="36" height="36" viewBox="0 0 36 36" fill="none" xmlns="http://www.w3.org/2000/svg">
<path d="M28.4129 9.38437C26.4709 8.50406 24.3945 7.86429 22.2236 7.5C21.957 7.96701 21.6455 8.59515 21.4308 9.09483C19.1231 8.75858 16.8367 8.75858 14.5714 9.09483C14.3567 8.59515 14.0382 7.96701 13.7692 7.5C11.596 7.86429 9.51719 8.50641 7.57524 9.38903C3.6583 15.1238 2.59649 20.7161 3.1274 26.229C5.72531 28.1087 8.24301 29.2505 10.7182 29.9977C11.3294 29.1828 11.8744 28.3165 12.344 27.4035C11.4497 27.0743 10.5932 26.668 9.78384 26.1963C9.99855 26.0422 10.2086 25.8811 10.4115 25.7153C15.3477 27.9522 20.7111 27.9522 25.5884 25.7153C25.7937 25.8811 26.0037 26.0422 26.2161 26.1963C25.4043 26.6703 24.5455 27.0766 23.6512 27.4059C24.1207 28.3165 24.6635 29.1851 25.2769 30C27.7545 29.2528 30.2746 28.111 32.8725 26.229C33.4954 19.8381 31.8083 14.2972 28.4129 9.38437ZM13.0165 22.8386C11.5347 22.8386 10.3194 21.4983 10.3194 19.8661C10.3194 18.234 11.5087 16.8914 13.0165 16.8914C14.5243 16.8914 15.7394 18.2316 15.7135 19.8661C15.7158 21.4983 14.5243 22.8386 13.0165 22.8386ZM22.9834 22.8386C21.5016 22.8386 20.2864 21.4983 20.2864 19.8661C20.2864 18.234 21.4756 16.8914 22.9834 16.8914C24.4912 16.8914 25.7064 18.2316 25.6805 19.8661C25.6805 21.4983 24.4912 22.8386 22.9834 22.8386Z" fill="white"/>
</svg>
