<svg width="123" height="15" viewBox="0 0 123 15" fill="none" xmlns="http://www.w3.org/2000/svg">
<path d="M18.3 0.600006V3.90001H7.04C6.33333 3.90001 5.74 3.96001 5.26 4.08001C4.79333 4.20001 4.42 4.40667 4.14 4.70001C3.86 4.98001 3.66 5.36667 3.54 5.86001C3.43333 6.35334 3.38 6.96667 3.38 7.70001V11.28H14.98V9.18001H12.44V6.04001H18.38V14.6H0V7.58001C0 6.48667 0.153333 5.50667 0.46 4.64001C0.766667 3.77334 1.21333 3.04001 1.8 2.44001C2.4 1.84001 3.13333 1.38667 4 1.08001C4.86667 0.760006 5.86 0.600006 6.98 0.600006H18.3Z" fill="white"/>
<path d="M39.2036 0.600006V7.64001C39.2036 8.73334 39.0503 9.71334 38.7436 10.58C38.4369 11.4333 37.9836 12.16 37.3836 12.76C36.7969 13.36 36.0703 13.82 35.2036 14.14C34.3369 14.4467 33.3436 14.6 32.2236 14.6H20.8036V11.28H32.1436C33.1836 11.28 33.9703 11.1067 34.5036 10.76C35.0503 10.4 35.4169 9.88001 35.6036 9.20001H20.8036V0.600006H24.2036V6.14001H35.8036V0.600006H39.2036Z" fill="white"/>
<path d="M56.3625 3.90001H50.2025C49.1758 3.90001 48.3492 3.95334 47.7225 4.06001C47.1092 4.16667 46.6225 4.32001 46.2625 4.52001C45.9158 4.70667 45.6625 4.94001 45.5025 5.22001C45.3558 5.48667 45.2492 5.78001 45.1825 6.10001H56.3625V3.90001ZM59.7825 14.6H56.3625V9.18001H44.9625V14.6H41.5625V7.58001C41.5625 6.48667 41.7158 5.50667 42.0225 4.64001C42.3425 3.77334 42.7958 3.04001 43.3825 2.44001C43.9825 1.84001 44.7158 1.38667 45.5825 1.08001C46.4492 0.760006 47.4358 0.600006 48.5425 0.600006H59.7825V14.6Z" fill="white"/>
<path d="M65.8052 14.6H62.4052V0.600006H65.8052V6.04001H71.1252L75.8852 0.600006H80.1452L75.1452 6.18001C76.7985 6.50001 78.0785 7.23334 78.9852 8.38001C79.9052 9.52667 80.3652 11.06 80.3652 12.98V14.6H76.9452V12.9C76.9452 10.42 75.7252 9.18001 73.2852 9.18001H65.8052V14.6Z" fill="white"/>
<path d="M85.6294 0.600006V7.42001C85.6294 9.99334 87.376 11.28 90.8694 11.28H96.4894V0.600006H99.8894V14.6H89.9894C88.8027 14.6 87.7294 14.44 86.7694 14.12C85.8227 13.8 85.0094 13.3267 84.3294 12.7C83.6627 12.0733 83.1427 11.3 82.7694 10.38C82.4094 9.46001 82.2294 8.40001 82.2294 7.20001V0.600006H85.6294Z" fill="white"/>
<path d="M110.836 6.256H107.172V8.032H108.964V12.144H110.836V6.256ZM110.836 11.312H109.092C108.356 11.888 107.54 12.448 106.82 12.896L107.764 14.896C108.612 14.192 109.316 13.584 110.004 12.96C111.044 14.208 112.388 14.672 114.388 14.752C116.308 14.832 119.54 14.8 121.476 14.704C121.572 14.128 121.876 13.2 122.084 12.752C119.924 12.928 116.292 12.976 114.42 12.896C112.724 12.832 111.492 12.384 110.836 11.312ZM107.188 1.536C108.132 2.256 109.252 3.344 109.716 4.096L111.252 2.848C110.708 2.096 109.556 1.072 108.612 0.384L107.188 1.536ZM113.092 7.84V9.664H119.876V7.84H113.092ZM111.364 2.448V4.176H121.636V2.448H111.364ZM112.196 4.928V9.664H113.924V4.928H112.196ZM119.156 4.928V9.664H120.948V4.928H119.156ZM118.5 0C118.26 0.656 117.812 1.584 117.428 2.192L119.092 2.656C119.508 2.112 120.02 1.312 120.516 0.48L118.5 0ZM112.612 0.719999C113.076 1.376 113.588 2.304 113.764 2.896L115.46 2.176C115.252 1.568 114.708 0.688 114.212 0.0640001L112.612 0.719999ZM115.556 3.248V8.048C115.556 9.6 115.188 11.184 112.932 11.728C113.316 12.08 113.844 12.768 114.068 13.168C116.708 12.256 117.412 10.304 117.412 8.064V3.248H115.556Z" fill="white"/>
</svg>
