<svg width="36" height="36" viewBox="0 0 36 36" fill="none" xmlns="http://www.w3.org/2000/svg">
<path fill-rule="evenodd" clip-rule="evenodd" d="M34.2 17.9992C34.2 26.9467 26.9467 34.2 17.9992 34.2C9.05175 34.2 1.7984 26.9467 1.7984 17.9992C1.7984 9.05175 9.05175 1.79841 17.9992 1.79841C26.9467 1.79841 34.2 9.05175 34.2 17.9992ZM18.8527 18.4263C18.8527 21.4874 16.3711 23.969 13.31 23.969C10.2489 23.969 7.76739 21.4874 7.76739 18.4263C7.76739 15.3652 10.2489 12.8837 13.31 12.8837C16.3711 12.8837 18.8527 15.3652 18.8527 18.4263ZM22.4373 23.4933C23.8544 23.4933 25.0032 21.2027 25.0032 18.377C25.0032 15.5514 23.8544 13.2608 22.4373 13.2608C21.0202 13.2608 19.8714 15.5514 19.8714 18.377C19.8714 21.2027 21.0202 23.4933 22.4373 23.4933ZM28.2325 18.4916C28.2325 21.0818 27.7539 23.1815 27.1634 23.1815C26.5729 23.1815 26.0943 21.0818 26.0943 18.4916C26.0943 15.9014 26.5729 13.8017 27.1634 13.8017C27.7539 13.8017 28.2325 15.9014 28.2325 18.4916Z" fill="white"/>
</svg>
