<svg width="36" height="36" viewBox="0 0 36 36" fill="none" xmlns="http://www.w3.org/2000/svg">
<path d="M31.4999 9.99388C30.4377 10.4314 29.3753 10.7047 28.3135 10.8144C29.5127 10.1254 30.3239 9.1519 30.7465 7.8941C29.6495 8.51743 28.4791 8.94388 27.2343 9.17368C26.1377 8.05805 24.7902 7.50001 23.1909 7.50001C21.6606 7.50001 20.3559 8.01673 19.2761 9.05042C18.197 10.084 17.6573 11.3336 17.6573 12.7992C17.6573 13.1928 17.7029 13.5977 17.7944 14.0133C15.5329 13.9039 13.4114 13.3598 11.4297 12.3809C9.44807 11.4018 7.76629 10.0975 6.38436 8.46784C5.88181 9.28798 5.63045 10.1795 5.63045 11.142C5.63045 12.0499 5.85313 12.8922 6.29879 13.6688C6.74415 14.4452 7.34391 15.0741 8.09776 15.5554C7.20674 15.5225 6.37302 15.2983 5.59648 14.8826V14.9482C5.59648 16.228 6.01622 17.3517 6.85558 18.3199C7.69506 19.2881 8.75447 19.8975 10.0335 20.1492C9.5538 20.2694 9.06829 20.3296 8.57727 20.3296C8.25744 20.3296 7.90904 20.3023 7.53221 20.248C7.88624 21.3087 8.5373 22.1807 9.48515 22.8646C10.4332 23.5482 11.5068 23.9006 12.7061 23.923C10.696 25.4322 8.40607 26.1867 5.83627 26.1867C5.34506 26.1867 4.89976 26.1653 4.49994 26.1213C7.0698 27.7071 9.90225 28.5 12.9975 28.5C14.9619 28.5 16.8065 28.2023 18.5306 27.606C20.2555 27.0102 21.7287 26.2115 22.9509 25.2105C24.1728 24.2098 25.2266 23.0586 26.1117 21.757C26.9967 20.4554 27.6561 19.0965 28.0905 17.6801C28.5243 16.2634 28.7414 14.8446 28.7414 13.4224C28.7414 13.1161 28.7357 12.8866 28.7242 12.7334C29.8095 11.979 30.7346 11.0655 31.4999 9.99388Z" fill="white"/>
</svg>
